<svg version="1.1" id="Layer_1" xmlns="http://www.w3.org/2000/svg" xmlns:xlink="http://www.w3.org/1999/xlink" x="0px" y="0px"
	 width="100%" viewBox="0 0 253 355" enable-background="new 0 0 253 355" xml:space="preserve">
<path fill="#FCFCFC" opacity="1.000000" stroke="none" 
	d="
M254.000000,100.000000 
	C254.000000,185.631638 254.000000,270.763275 254.000000,355.947449 
	C169.736404,355.947449 85.472771,355.947449 1.104566,355.947449 
	C1.104566,237.785126 1.104566,119.570129 1.104566,1.177567 
	C85.333023,1.177567 169.666489,1.177567 254.000000,1.177567 
	C254.000000,33.860405 254.000000,66.680206 254.000000,100.000000 
M44.478161,301.346832 
	C44.957794,300.906403 45.437428,300.466003 46.742889,300.025604 
	C50.394871,300.003204 49.823944,302.719391 49.926620,304.969574 
	C50.048634,307.643616 50.125675,310.319702 50.222202,312.994904 
	C50.881687,312.966095 51.541168,312.937286 52.200653,312.908478 
	C52.200653,309.997162 51.822147,307.014618 52.351276,304.202881 
	C52.640442,302.666290 54.465466,301.418701 55.597881,300.040802 
	C56.393703,301.403717 57.698830,302.703186 57.878105,304.142883 
	C58.238613,307.037964 57.985340,310.009491 57.985340,312.949463 
	C58.649570,312.939514 59.313801,312.929565 59.978031,312.919647 
	C59.978031,308.765228 60.170628,304.594757 59.826797,300.468994 
	C59.751789,299.568939 57.310421,297.888489 56.724361,298.168671 
	C53.158306,299.873474 49.745716,298.124664 46.295055,298.229431 
	C45.876629,298.242126 45.473225,298.749756 44.510609,298.992371 
	C44.013615,298.819611 43.516621,298.646881 42.624702,298.098541 
	C42.444603,298.122345 42.264500,298.146179 41.273510,298.453094 
	C41.544014,303.245514 41.814514,308.037903 42.620876,312.939331 
	C42.779686,312.849854 42.938499,312.760376 43.692970,312.210114 
	C43.739483,308.906952 43.785999,305.603790 44.035549,301.973907 
	C44.035549,301.973907 44.062889,301.590210 44.478161,301.346832 
M73.140869,299.291931 
	C72.525856,298.951294 71.910843,298.610626 71.295837,298.269958 
	C71.295837,303.131561 71.295837,307.993164 71.295837,312.854767 
	C71.543274,312.831299 71.790710,312.807861 72.038147,312.784393 
	C73.114075,308.529327 74.190002,304.274261 76.058121,300.056610 
	C79.237061,299.710114 80.083138,301.494873 80.015800,304.262146 
	C79.945030,307.170258 79.999954,310.081482 79.999954,312.991333 
	C80.785469,313.006683 81.570992,313.022003 82.356506,313.037323 
	C82.356506,310.059998 82.652214,307.042145 82.251274,304.119812 
	C81.989319,302.210571 81.146027,299.457123 79.785400,298.863007 
	C78.185181,298.164337 75.743523,299.392700 73.140869,299.291931 
M36.865307,312.663452 
	C36.865307,306.140198 36.865307,299.616943 36.865307,293.093719 
	C36.251945,293.091675 35.638588,293.089600 35.025227,293.087555 
	C35.025227,295.128662 35.025227,297.169739 34.238525,299.156860 
	C31.513233,297.355682 28.175180,297.258667 26.878101,299.992645 
	C25.562365,302.765961 25.265341,306.610962 26.016598,309.612579 
	C26.782932,312.674500 29.889385,313.766479 33.291027,312.559082 
	C34.065483,312.284210 35.080952,312.688324 36.865307,312.663452 
M130.809555,312.352051 
	C130.788254,309.400909 130.766953,306.449799 131.031509,302.735901 
	C132.591400,301.879089 134.151276,301.022278 135.711151,300.165436 
	C136.399384,301.702484 137.490097,303.190247 137.685638,304.787598 
	C138.014893,307.477295 137.775848,310.236603 137.775848,312.966614 
	C138.550323,312.964233 139.324783,312.961823 140.099258,312.959442 
	C140.099258,309.845886 140.188477,306.729187 140.079178,303.619476 
	C139.896713,298.428253 137.346466,297.007416 131.606384,299.095825 
	C131.125748,298.886932 130.645111,298.678040 129.736069,298.111847 
	C129.550873,298.128540 129.365662,298.145264 128.383301,298.483948 
	C128.649323,303.268768 128.915359,308.053589 129.681931,312.960938 
	C129.840698,312.895325 129.999451,312.829742 130.809555,312.352051 
M146.999359,303.197784 
	C147.298248,301.995422 147.597137,300.793091 147.947998,299.381622 
	C145.297867,298.552917 145.297867,298.552917 143.217758,303.229858 
	C142.624542,307.336761 143.173096,311.079285 147.641190,312.602936 
	C150.951035,313.731659 154.025833,313.147644 156.315628,308.784271 
	C151.841660,310.404541 147.352249,313.356628 145.554123,305.969360 
	C149.438965,305.969360 152.706116,305.969360 156.689529,305.969360 
	C155.969116,303.635712 155.409073,301.821533 154.633499,299.376007 
	C153.575546,299.101562 152.517578,298.827118 151.459625,298.552673 
	C151.952576,299.644440 152.445526,300.736176 153.428192,302.376373 
	C151.288986,302.855347 149.149780,303.334290 146.999359,303.197784 
M189.363678,224.499847 
	C189.363678,236.093445 189.363678,247.687027 189.363678,259.762909 
	C161.137741,259.762909 133.738327,259.762909 106.013557,259.762909 
	C106.289764,262.534149 106.512810,264.772034 106.770325,267.355774 
	C108.679314,267.355774 110.151566,267.355743 111.623817,267.355743 
	C137.613617,267.355743 163.603409,267.360748 189.593201,267.352478 
	C196.577042,267.350281 196.993408,266.947662 196.995651,260.021454 
	C197.006500,226.534592 197.000778,193.047745 197.000946,159.560883 
	C197.000961,157.613449 197.000946,155.666000 197.000946,153.011505 
	C205.353912,153.011505 213.139771,152.813995 220.908661,153.091583 
	C225.032822,153.238953 227.020828,151.729187 227.767685,147.725433 
	C229.780609,136.934448 231.635941,126.092545 234.268845,115.447708 
	C235.605774,110.042542 234.047760,107.656342 229.200378,105.596756 
	C209.457062,97.208099 189.864777,88.464516 170.169907,79.960365 
	C168.255249,79.133629 166.019226,78.693672 163.929749,78.684677 
	C143.604828,78.597183 123.279289,78.619034 102.954124,78.678894 
	C100.991241,78.684669 98.839645,78.719688 97.096527,79.478371 
	C76.053085,88.637497 55.072758,97.941559 34.068470,107.190804 
	C30.855583,108.605598 29.733532,110.588509 30.677217,114.307388 
	C33.419224,125.113083 35.889420,135.994064 38.168755,146.907654 
	C39.041245,151.085159 41.030354,152.651642 45.290504,152.709213 
	C53.242107,152.816696 61.186424,153.463165 69.304527,153.894409 
	C69.478569,157.687439 69.627846,160.940765 69.774170,164.129639 
	C72.272049,164.129639 74.348213,164.129639 76.856010,164.129639 
	C76.856010,160.154175 76.621063,156.500580 76.913315,152.889648 
	C77.311340,147.971802 75.331917,145.902695 70.397766,145.816788 
	C63.241550,145.692169 56.077160,145.315796 48.953445,144.649307 
	C47.512917,144.514542 45.400333,142.841705 45.024815,141.483398 
	C42.853359,133.628845 41.169937,125.640938 39.188343,117.731491 
	C38.504890,115.003540 39.179314,113.547745 41.901676,112.401054 
	C53.084644,107.690674 64.175194,102.760124 75.284500,97.875923 
	C82.245316,94.815598 89.179001,91.693565 96.161140,88.583061 
	C104.242020,112.412994 113.953491,122.044182 131.376541,121.938423 
	C153.255051,121.805626 164.941574,109.306175 168.675858,87.906555 
	C187.546661,96.173042 205.942062,104.182777 224.251892,112.383575 
	C225.252975,112.831955 226.247849,114.995811 226.047302,116.153564 
	C224.572617,124.666809 222.685745,133.108139 221.171143,141.615265 
	C220.691040,144.311890 219.549088,145.116882 216.897583,145.089325 
	C210.070786,145.018326 203.241196,145.262115 196.412247,145.337433 
	C189.837296,145.409958 189.373856,145.829178 189.369980,152.527695 
	C189.356277,176.185074 189.364075,199.842453 189.363678,224.499847 
M10.247854,192.077454 
	C8.560007,214.662537 6.900634,237.249802 5.165423,259.831238 
	C4.698501,265.907623 5.832375,267.341278 11.940488,267.348267 
	C35.268909,267.374939 58.597389,267.370422 81.925827,267.351715 
	C88.454071,267.346466 89.584267,266.149719 89.095375,259.710480 
	C87.481728,238.456680 85.813133,217.207047 84.200081,195.953186 
	C83.541382,187.274002 82.030708,186.089218 72.610580,187.770416 
	C73.316460,189.888351 73.707207,193.512970 74.736443,193.704391 
	C78.296906,194.366531 77.711861,196.716385 77.886520,198.905884 
	C79.263741,216.170944 80.658501,233.434814 81.947701,250.706528 
	C82.189209,253.942123 81.982254,257.211182 81.982254,260.344879 
	C58.523209,260.344879 35.427067,260.344879 12.077380,260.344879 
	C12.077380,257.919617 11.943798,255.787888 12.099111,253.677399 
	C13.088774,240.229492 14.142366,226.786270 15.174317,213.341476 
	C15.531113,208.692993 15.476061,203.964142 16.365160,199.419907 
	C17.149572,195.410782 18.986866,191.607651 20.478205,187.376022 
	C15.886067,186.896683 12.029290,186.340225 10.247854,192.077454 
M135.054947,152.452606 
	C117.995117,150.659134 105.346603,166.532898 108.381264,184.036423 
	C110.756989,197.739273 124.334641,207.498062 136.767670,204.742523 
	C149.136887,202.001114 157.228012,191.725723 157.240005,178.743484 
	C157.252502,165.212082 149.392990,155.560699 135.054947,152.452606 
M60.383060,186.867599 
	C58.154774,189.430405 57.991371,192.215958 60.703266,194.218124 
	C61.904694,195.105133 64.600937,195.263672 65.869247,194.503143 
	C68.815048,192.736755 68.446259,190.021805 66.899399,187.124619 
	C66.102386,185.631851 66.075264,183.659409 65.952782,181.886276 
	C65.189308,170.833649 56.734974,162.056625 46.708607,161.993622 
	C36.137417,161.927231 27.896410,170.442200 27.169439,181.951889 
	C27.017595,184.355942 25.712473,186.731659 25.790808,189.092163 
	C25.857939,191.115036 26.689911,193.567261 28.075567,194.907257 
	C28.811253,195.618683 32.359222,194.930374 33.004536,193.875153 
	C33.985546,192.271011 34.427338,189.284332 33.552891,187.787735 
	C30.426479,182.436981 30.353556,178.065903 34.289612,172.630569 
	C38.763596,166.452408 46.908176,164.423950 53.347767,167.883987 
	C60.073994,171.498047 63.524868,179.847427 60.383060,186.867599 
M131.503067,227.723236 
	C136.998474,227.721771 142.530548,228.077332 147.968811,227.519135 
	C149.794937,227.331711 151.382294,224.818130 153.078781,223.367767 
	C151.385284,221.925858 149.739136,219.306961 147.990433,219.236618 
	C138.014908,218.835236 128.014938,219.044830 118.023277,219.038239 
	C114.917198,219.036179 112.292702,220.338181 113.039352,223.586044 
	C113.423607,225.257553 116.145996,227.256348 118.043938,227.536819 
	C122.118233,228.138977 126.343056,227.722595 131.503067,227.723236 
M56.181446,232.762909 
	C57.112061,231.604965 58.214302,230.545273 58.943401,229.271942 
	C62.005302,223.924530 61.563953,216.499313 57.705238,211.918198 
	C54.336983,207.919373 50.191204,205.320511 44.620968,206.832611 
	C38.423286,208.515030 34.543247,212.551300 33.513565,218.885025 
	C32.497879,225.132645 34.466133,230.497223 39.855587,234.034042 
	C45.151653,237.509583 50.524509,236.971512 56.181446,232.762909 
M143.605637,41.008022 
	C143.605637,45.262180 143.605637,49.516338 143.605637,53.770496 
	C144.151733,54.038246 144.697845,54.305992 145.243942,54.573742 
	C146.109360,53.414097 147.464813,52.355198 147.728653,51.071877 
	C148.155228,48.996910 147.542297,46.704285 147.992111,44.639469 
	C148.279755,43.319141 149.690002,42.243374 150.596970,41.057964 
	C151.397339,42.243690 152.740234,43.365562 152.888809,44.627995 
	C153.232559,47.548851 152.998077,50.537758 152.998077,53.499069 
	C153.440857,53.813858 153.883636,54.128643 154.326416,54.443432 
	C155.244110,53.400574 156.726654,52.468838 156.958359,51.291027 
	C157.399765,49.047184 156.777390,46.582367 157.287003,44.368168 
	C157.575378,43.115185 159.235779,42.177975 160.278229,41.098541 
	C160.946152,42.226265 162.012802,43.293816 162.194077,44.494984 
	C162.512970,46.608013 162.385696,48.807720 162.272552,50.962059 
	C162.103485,54.181843 163.586868,54.583874 166.387314,53.481079 
	C166.387314,50.281689 166.467331,47.132286 166.369568,43.988411 
	C166.200989,38.567257 163.606995,36.936485 158.564896,38.856133 
	C157.648056,39.205193 156.537460,39.224163 155.536942,39.142601 
	C151.863556,38.843159 148.201569,38.393440 144.525101,38.163338 
	C144.262314,38.146889 143.917267,39.445114 143.605637,41.008022 
M8.040087,52.217793 
	C12.213089,55.799171 16.952772,54.447598 21.125185,52.892414 
	C26.449722,50.907791 26.409481,45.771065 26.102558,41.002991 
	C25.819878,36.611534 23.827896,33.067036 19.304445,32.316410 
	C15.674029,31.713978 11.863894,32.194584 8.029169,32.194584 
	C8.029169,38.956825 8.029169,45.111225 8.040087,52.217793 
M178.666870,37.972954 
	C175.926300,38.215847 173.185715,38.458740 170.267517,38.717373 
	C170.267517,44.871479 170.199997,51.018177 170.297195,57.162270 
	C170.342941,60.053902 170.486420,60.051632 174.210464,59.265762 
	C174.371063,57.177277 174.532150,55.082432 174.699142,52.910763 
	C180.574997,54.626713 183.679474,53.447842 185.097626,49.216419 
	C186.830460,44.046101 184.786133,39.985527 178.666870,37.972954 
M48.308121,54.014683 
	C50.158279,53.386368 52.008442,52.758049 54.039639,52.068253 
	C51.286156,48.258480 45.138783,54.211010 44.248703,47.020580 
	C46.014816,47.020580 47.617245,47.020584 49.219673,47.020584 
	C50.984024,47.020584 52.748375,47.020580 56.359722,47.020580 
	C53.935818,43.485134 52.839153,40.317280 50.678944,39.193054 
	C48.675369,38.150345 44.427155,38.292847 43.156784,39.704201 
	C41.263752,41.807323 40.299679,45.522270 40.437439,48.481697 
	C40.610397,52.197296 43.764534,53.908710 48.308121,54.014683 
M199.034454,47.238144 
	C201.176987,54.492458 207.185074,56.315998 212.487167,51.360870 
	C210.293289,48.213024 204.035568,54.208282 203.232544,46.769936 
	C206.838562,46.769936 210.206131,46.769936 213.621063,46.769936 
	C212.755844,40.377747 210.592209,37.952461 206.208618,37.986771 
	C201.953171,38.020077 199.612473,40.770733 199.034454,47.238144 
M56.811348,50.567268 
	C59.272812,54.555180 63.145245,54.660213 66.861000,53.496998 
	C68.517151,52.978542 70.386559,50.832081 70.700340,49.152042 
	C70.907257,48.044178 68.736626,46.085041 67.228905,45.166000 
	C65.293602,43.986328 62.955341,43.467739 60.790684,42.664337 
	C60.932331,42.166245 61.073975,41.668156 61.215622,41.170063 
	C64.134926,41.549713 67.054230,41.929363 70.879890,42.426888 
	C67.983833,37.546864 64.405426,37.355690 61.041222,38.382801 
	C59.397552,38.884617 57.506538,41.070488 57.237785,42.737583 
	C57.046677,43.923080 59.130768,45.952755 60.648609,46.814613 
	C62.514530,47.874119 64.847809,48.110546 66.979080,48.702744 
	C66.914780,49.292274 66.850479,49.881802 66.786179,50.471333 
	C65.080055,50.471333 63.371784,50.524361 61.668461,50.455292 
	C60.187939,50.395264 58.713009,50.197178 56.811348,50.567268 
M226.386444,53.271362 
	C227.480423,51.789295 229.561707,50.187065 229.399918,48.857830 
	C229.226593,47.433807 227.107773,45.983582 225.535110,45.061329 
	C223.687714,43.977959 221.514328,43.450489 219.482315,42.681934 
	C219.595123,42.205120 219.707947,41.728302 219.820770,41.251488 
	C222.771118,41.581432 225.721466,41.911381 228.671814,42.241329 
	C228.820480,41.530956 228.969147,40.820583 229.117813,40.110210 
	C226.347809,39.412945 223.501968,37.989681 220.833878,38.268349 
	C218.991364,38.460785 217.394562,41.005760 215.687958,42.499435 
	C217.143829,44.025921 218.401459,45.849903 220.114014,46.991219 
	C221.676743,48.032681 223.732437,48.334435 225.570877,48.962208 
	C225.436020,49.553585 225.301178,50.144962 225.166336,50.736340 
	C221.965851,50.418102 218.765350,50.099869 214.586578,49.684357 
	C218.112167,54.351624 221.763092,54.455429 226.386444,53.271362 
M116.393654,37.971596 
	C111.811028,38.111881 108.762665,40.278267 108.127281,44.912575 
	C107.641670,48.454624 108.807838,51.443867 112.355309,53.087627 
	C116.835457,55.163563 121.849937,53.440128 123.644135,49.153999 
	C125.704628,44.231735 123.358864,40.179550 116.393654,37.971596 
M77.828583,42.952232 
	C79.100449,40.688599 79.560448,40.654221 82.230988,41.603004 
	C83.558594,42.074665 85.066460,42.038925 86.492783,42.232727 
	C86.614403,41.460846 86.736031,40.688965 86.857651,39.917084 
	C84.174011,39.280628 81.397598,37.917839 78.837013,38.244858 
	C76.899727,38.492275 75.237946,40.896881 73.453552,42.341465 
	C74.880318,43.909618 76.082832,45.819626 77.799561,46.945751 
	C79.383553,47.984810 81.519333,48.182697 83.412079,48.751083 
	C83.286156,49.421146 83.160233,50.091206 83.034309,50.761269 
	C79.824051,50.429440 76.613792,50.097610 72.232338,49.644722 
	C76.315887,54.431313 80.219025,54.967129 84.319725,53.075771 
	C85.658539,52.458271 87.017258,50.531857 87.152267,49.090321 
	C87.257561,47.965954 85.718781,46.265549 84.487129,45.537788 
	C82.677887,44.468739 80.491043,44.038727 77.828583,42.952232 
M245.707855,50.992653 
	C246.919601,47.636379 245.109482,46.049038 242.257324,45.020164 
	C240.123581,44.250458 238.016235,43.407608 235.897141,42.597324 
	C236.054794,42.091610 236.212463,41.585896 236.370117,41.080181 
	C239.271301,41.463909 242.172501,41.847633 245.073685,42.231361 
	C245.201736,41.434517 245.329803,40.637676 245.457855,39.840836 
	C242.764465,39.232857 239.966476,37.891582 237.411835,38.256027 
	C235.474915,38.532345 233.848068,40.982113 232.083252,42.464729 
	C233.565201,43.998329 234.842529,45.851021 236.589508,46.971321 
	C238.178574,47.990337 240.277985,48.213535 242.152435,48.787540 
	C242.016006,49.442947 241.879578,50.098351 241.743149,50.753757 
	C238.550705,50.442856 235.358261,50.131958 231.014542,49.708939 
	C236.416595,55.034466 239.943878,55.263626 245.707855,50.992653 
M17.846094,298.579559 
	C17.255205,297.203156 16.976807,295.486298 15.970453,294.562500 
	C15.221288,293.874786 12.551421,293.803436 12.403199,294.156708 
	C9.846571,300.249817 7.548893,306.451630 4.836135,313.570007 
	C6.422653,312.667725 21.946573,312.448303 23.527517,312.768280 
	C21.648252,308.111511 19.870541,303.706390 17.846094,298.579559 
M102.398682,305.206451 
	C106.736290,305.425842 109.560791,303.650757 109.761078,299.081177 
	C109.938568,295.031647 107.234940,293.065247 101.823357,292.981964 
	C99.543320,292.946869 97.262291,292.976105 95.331284,292.976105 
	C95.331284,299.970062 95.331284,306.473724 95.331284,312.977386 
	C95.809937,312.990784 96.288582,313.004150 96.767235,313.017517 
	C96.958168,310.558472 97.149101,308.099396 97.373566,305.208557 
	C98.940575,305.208557 100.231445,305.208557 102.398682,305.206451 
M112.852898,301.571381 
	C113.037453,301.983612 113.222008,302.395844 113.406563,302.808075 
	C114.131371,302.317749 114.895691,301.876343 115.574127,301.328583 
	C118.513611,298.955353 120.488655,299.585297 122.139511,303.884705 
	C120.337463,304.251007 118.370987,304.194153 116.958481,305.050781 
	C115.096581,306.179871 113.669701,308.026276 112.055809,309.564301 
	C114.151924,310.699432 116.137863,312.289948 118.377518,312.831818 
	C120.320251,313.301880 122.550385,312.584076 124.769203,312.380676 
	C124.769203,310.152588 125.147888,307.597473 124.662384,305.218750 
	C124.179832,302.854492 123.433655,299.632507 121.723701,298.632690 
	C118.773567,296.907715 115.271309,297.607666 112.852898,301.571381 
M36.161301,245.605316 
	C36.864628,246.679520 37.531048,248.654724 38.277134,248.685287 
	C44.217705,248.928635 50.176117,248.885345 56.121052,248.688293 
	C56.879696,248.663147 58.142361,247.263489 58.168335,246.467865 
	C58.193348,245.701599 56.910049,244.202240 56.215378,244.210342 
	C49.684662,244.286469 43.156906,244.616974 36.161301,245.605316 
M51.745365,187.079102 
	C47.641384,187.079102 43.537399,187.079102 39.242702,187.079102 
	C39.692379,189.639999 40.075397,191.821289 40.434647,193.867218 
	C44.588570,193.867218 48.466892,193.867218 52.913853,193.867218 
	C52.789413,191.410278 52.681641,189.282410 51.745365,187.079102 
M105.982491,53.726120 
	C106.228432,53.004623 106.908920,51.917786 106.655380,51.616222 
	C102.597885,46.790169 102.559059,43.742195 106.475700,39.513081 
	C105.247345,37.729340 104.034386,35.967964 102.509369,33.753441 
	C99.178719,34.055489 98.396927,37.645031 98.003792,40.418438 
	C97.641739,42.972542 99.451843,45.759998 99.546082,48.471046 
	C99.682800,52.404106 100.979752,54.500668 105.982491,53.726120 
M193.850876,41.628292 
	C195.265579,40.881859 196.680298,40.135422 198.095001,39.388985 
	C197.928650,39.080883 197.762283,38.772778 197.595932,38.464676 
	C194.577805,38.464676 191.559692,38.464676 188.245407,38.464676 
	C188.245407,42.677261 188.358826,46.805195 188.208969,50.923546 
	C188.092392,54.127560 189.496689,54.613266 192.007523,53.664963 
	C192.440414,49.792004 192.860367,46.034878 193.850876,41.628292 
M135.778488,53.204853 
	C137.024048,53.461533 138.269608,53.718212 139.861557,54.046276 
	C139.861557,47.233166 139.772018,41.248444 139.895782,35.268139 
	C139.967789,31.789305 138.512253,31.373329 135.673843,32.604172 
	C135.673843,39.268551 135.673843,45.762032 135.778488,53.204853 
M33.746151,46.658062 
	C32.497555,42.088783 36.970436,41.284462 40.368629,38.421524 
	C35.951809,38.421524 32.985611,38.421524 29.922583,38.421524 
	C29.922583,43.585861 29.922583,48.629478 29.922583,53.944546 
	C35.959839,54.306019 32.912083,49.813061 33.746151,46.658062 
M159.817520,303.484833 
	C159.817520,306.653229 159.817520,309.821625 159.817520,312.990021 
	C160.358353,312.935730 160.899200,312.881439 161.440033,312.827179 
	C161.440033,306.254578 161.440033,299.681946 161.440033,293.109344 
	C160.899185,293.104889 160.358353,293.100433 159.817505,293.095978 
	C159.817505,296.235596 159.817505,299.375214 159.817520,303.484833 
M67.078651,305.500244 
	C66.982559,303.005280 66.886467,300.510345 66.790375,298.015381 
	C66.343933,298.053833 65.897491,298.092316 65.451050,298.130768 
	C65.451050,303.038391 65.451050,307.945984 65.451050,312.853607 
	C65.993584,312.872955 66.536118,312.892303 67.078651,312.911621 
	C67.078651,310.757477 67.078651,308.603302 67.078651,305.500244 
z"/>
<path fill="#0F0F0F" opacity="1.000000" stroke="none" 
	d="
M189.363708,223.999847 
	C189.364075,199.842453 189.356277,176.185074 189.369980,152.527695 
	C189.373856,145.829178 189.837296,145.409958 196.412247,145.337433 
	C203.241196,145.262115 210.070786,145.018326 216.897583,145.089325 
	C219.549088,145.116882 220.691040,144.311890 221.171143,141.615265 
	C222.685745,133.108139 224.572617,124.666809 226.047302,116.153564 
	C226.247849,114.995811 225.252975,112.831955 224.251892,112.383575 
	C205.942062,104.182777 187.546661,96.173042 168.675858,87.906555 
	C164.941574,109.306175 153.255051,121.805626 131.376541,121.938423 
	C113.953491,122.044182 104.242020,112.412994 96.161140,88.583061 
	C89.179001,91.693565 82.245316,94.815598 75.284500,97.875923 
	C64.175194,102.760124 53.084644,107.690674 41.901676,112.401054 
	C39.179314,113.547745 38.504890,115.003540 39.188343,117.731491 
	C41.169937,125.640938 42.853359,133.628845 45.024815,141.483398 
	C45.400333,142.841705 47.512917,144.514542 48.953445,144.649307 
	C56.077160,145.315796 63.241550,145.692169 70.397766,145.816788 
	C75.331917,145.902695 77.311340,147.971802 76.913315,152.889648 
	C76.621063,156.500580 76.856010,160.154175 76.856010,164.129639 
	C74.348213,164.129639 72.272049,164.129639 69.774170,164.129639 
	C69.627846,160.940765 69.478569,157.687439 69.304527,153.894409 
	C61.186424,153.463165 53.242107,152.816696 45.290504,152.709213 
	C41.030354,152.651642 39.041245,151.085159 38.168755,146.907654 
	C35.889420,135.994064 33.419224,125.113083 30.677217,114.307388 
	C29.733532,110.588509 30.855583,108.605598 34.068470,107.190804 
	C55.072758,97.941559 76.053085,88.637497 97.096527,79.478371 
	C98.839645,78.719688 100.991241,78.684669 102.954124,78.678894 
	C123.279289,78.619034 143.604828,78.597183 163.929749,78.684677 
	C166.019226,78.693672 168.255249,79.133629 170.169907,79.960365 
	C189.864777,88.464516 209.457062,97.208099 229.200378,105.596756 
	C234.047760,107.656342 235.605774,110.042542 234.268845,115.447708 
	C231.635941,126.092545 229.780609,136.934448 227.767685,147.725433 
	C227.020828,151.729187 225.032822,153.238953 220.908661,153.091583 
	C213.139771,152.813995 205.353912,153.011505 197.000946,153.011505 
	C197.000946,155.666000 197.000961,157.613449 197.000946,159.560883 
	C197.000778,193.047745 197.006500,226.534592 196.995651,260.021454 
	C196.993408,266.947662 196.577042,267.350281 189.593201,267.352478 
	C163.603409,267.360748 137.613617,267.355743 111.623817,267.355743 
	C110.151566,267.355743 108.679314,267.355774 106.770325,267.355774 
	C106.512810,264.772034 106.289764,262.534149 106.013557,259.762909 
	C133.738327,259.762909 161.137741,259.762909 189.363678,259.762909 
	C189.363678,247.687027 189.363678,236.093445 189.363708,223.999847 
M109.351646,102.033745 
	C117.810860,113.254631 131.471207,117.081192 143.990021,111.736717 
	C154.285294,107.341492 161.477112,96.172211 160.042679,86.646667 
	C141.660812,86.646667 123.260559,86.646667 103.261459,86.646667 
	C105.369400,92.083046 107.175392,96.740669 109.351646,102.033745 
z"/>
<path fill="#101010" opacity="1.000000" stroke="none" 
	d="
M10.295540,191.662064 
	C12.029290,186.340225 15.886067,186.896683 20.478205,187.376022 
	C18.986866,191.607651 17.149572,195.410782 16.365160,199.419907 
	C15.476061,203.964142 15.531113,208.692993 15.174317,213.341476 
	C14.142366,226.786270 13.088774,240.229492 12.099111,253.677399 
	C11.943798,255.787888 12.077380,257.919617 12.077380,260.344879 
	C35.427067,260.344879 58.523209,260.344879 81.982254,260.344879 
	C81.982254,257.211182 82.189209,253.942123 81.947701,250.706528 
	C80.658501,233.434814 79.263741,216.170944 77.886520,198.905884 
	C77.711861,196.716385 78.296906,194.366531 74.736443,193.704391 
	C73.707207,193.512970 73.316460,189.888351 72.610580,187.770416 
	C82.030708,186.089218 83.541382,187.274002 84.200081,195.953186 
	C85.813133,217.207047 87.481728,238.456680 89.095375,259.710480 
	C89.584267,266.149719 88.454071,267.346466 81.925827,267.351715 
	C58.597389,267.370422 35.268909,267.374939 11.940488,267.348267 
	C5.832375,267.341278 4.698501,265.907623 5.165423,259.831238 
	C6.900634,237.249802 8.560007,214.662537 10.295540,191.662064 
z"/>
<path fill="#12110D" opacity="1.000000" stroke="none" 
	d="
M135.474945,152.492294 
	C149.392990,155.560699 157.252502,165.212082 157.240005,178.743484 
	C157.228012,191.725723 149.136887,202.001114 136.767670,204.742523 
	C124.334641,207.498062 110.756989,197.739273 108.381264,184.036423 
	C105.346603,166.532898 117.995117,150.659134 135.474945,152.492294 
M150.185684,174.960907 
	C149.943878,173.992935 149.787384,172.993790 149.447052,172.061783 
	C146.000397,162.622955 137.319443,157.775513 128.098602,160.109467 
	C119.251762,162.348755 113.269943,172.286865 114.896591,182.043045 
	C116.528435,191.830322 124.804558,198.611938 134.196365,197.857666 
	C144.289520,197.047058 151.067047,187.795746 150.185684,174.960907 
z"/>
<path fill="#1F1F1F" opacity="1.000000" stroke="none" 
	d="
M60.668846,186.578186 
	C63.524868,179.847427 60.073994,171.498047 53.347767,167.883987 
	C46.908176,164.423950 38.763596,166.452408 34.289612,172.630569 
	C30.353556,178.065903 30.426479,182.436981 33.552891,187.787735 
	C34.427338,189.284332 33.985546,192.271011 33.004536,193.875153 
	C32.359222,194.930374 28.811253,195.618683 28.075567,194.907257 
	C26.689911,193.567261 25.857939,191.115036 25.790808,189.092163 
	C25.712473,186.731659 27.017595,184.355942 27.169439,181.951889 
	C27.896410,170.442200 36.137417,161.927231 46.708607,161.993622 
	C56.734974,162.056625 65.189308,170.833649 65.952782,181.886276 
	C66.075264,183.659409 66.102386,185.631851 66.899399,187.124619 
	C68.446259,190.021805 68.815048,192.736755 65.869247,194.503143 
	C64.600937,195.263672 61.904694,195.105133 60.703266,194.218124 
	C57.991371,192.215958 58.154774,189.430405 60.668846,186.578186 
z"/>
<path fill="#181818" opacity="1.000000" stroke="none" 
	d="
M131.004669,227.723236 
	C126.343056,227.722595 122.118233,228.138977 118.043938,227.536819 
	C116.145996,227.256348 113.423607,225.257553 113.039352,223.586044 
	C112.292702,220.338181 114.917198,219.036179 118.023277,219.038239 
	C128.014938,219.044830 138.014908,218.835236 147.990433,219.236618 
	C149.739136,219.306961 151.385284,221.925858 153.078781,223.367767 
	C151.382294,224.818130 149.794937,227.331711 147.968811,227.519135 
	C142.530548,228.077332 136.998474,227.721771 131.004669,227.723236 
z"/>
<path fill="#211F18" opacity="1.000000" stroke="none" 
	d="
M55.889900,233.001282 
	C50.524509,236.971512 45.151653,237.509583 39.855587,234.034042 
	C34.466133,230.497223 32.497879,225.132645 33.513565,218.885025 
	C34.543247,212.551300 38.423286,208.515030 44.620968,206.832611 
	C50.191204,205.320511 54.336983,207.919373 57.705238,211.918198 
	C61.563953,216.499313 62.005302,223.924530 58.943401,229.271942 
	C58.214302,230.545273 57.112061,231.604965 55.889900,233.001282 
M40.318592,229.232483 
	C41.281235,229.868118 42.176682,230.656891 43.217777,231.113739 
	C48.648960,233.496994 54.418339,230.904907 56.519478,225.212616 
	C58.645660,219.452469 55.420910,212.706726 49.791946,211.139511 
	C44.319176,209.615768 38.045147,213.128342 37.487099,218.893219 
	C37.181232,222.052917 38.949932,225.413437 40.318592,229.232483 
z"/>
<path fill="#443E41" opacity="1.000000" stroke="none" 
	d="
M143.608063,40.570038 
	C143.917267,39.445114 144.262314,38.146889 144.525101,38.163338 
	C148.201569,38.393440 151.863556,38.843159 155.536942,39.142601 
	C156.537460,39.224163 157.648056,39.205193 158.564896,38.856133 
	C163.606995,36.936485 166.200989,38.567257 166.369568,43.988411 
	C166.467331,47.132286 166.387314,50.281689 166.387314,53.481079 
	C163.586868,54.583874 162.103485,54.181843 162.272552,50.962059 
	C162.385696,48.807720 162.512970,46.608013 162.194077,44.494984 
	C162.012802,43.293816 160.946152,42.226265 160.278229,41.098541 
	C159.235779,42.177975 157.575378,43.115185 157.287003,44.368168 
	C156.777390,46.582367 157.399765,49.047184 156.958359,51.291027 
	C156.726654,52.468838 155.244110,53.400574 154.326416,54.443432 
	C153.883636,54.128643 153.440857,53.813858 152.998077,53.499069 
	C152.998077,50.537758 153.232559,47.548851 152.888809,44.627995 
	C152.740234,43.365562 151.397339,42.243690 150.596970,41.057968 
	C149.690002,42.243374 148.279755,43.319141 147.992111,44.639469 
	C147.542297,46.704285 148.155228,48.996910 147.728653,51.071877 
	C147.464813,52.355198 146.109360,53.414097 145.243942,54.573742 
	C144.697845,54.305992 144.151733,54.038246 143.605637,53.770496 
	C143.605637,49.516338 143.605637,45.262180 143.608063,40.570038 
z"/>
<path fill="#40373D" opacity="1.000000" stroke="none" 
	d="
M8.034628,51.741707 
	C8.029169,45.111225 8.029169,38.956825 8.029169,32.194584 
	C11.863894,32.194584 15.674029,31.713978 19.304445,32.316410 
	C23.827896,33.067036 25.819878,36.611534 26.102558,41.002991 
	C26.409481,45.771065 26.449722,50.907791 21.125185,52.892414 
	C16.952772,54.447598 12.213089,55.799171 8.034628,51.741707 
M12.134336,49.077518 
	C14.999229,48.853542 19.668329,49.549282 20.349865,48.212311 
	C21.728415,45.508007 22.012215,41.167274 20.693388,38.527565 
	C19.739227,36.617756 15.473851,36.362263 12.056156,35.144993 
	C12.056156,40.551083 12.056156,44.352142 12.134336,49.077518 
z"/>
<path fill="#4D453D" opacity="1.000000" stroke="none" 
	d="
M179.052429,37.973907 
	C184.786133,39.985527 186.830460,44.046101 185.097626,49.216419 
	C183.679474,53.447842 180.574997,54.626713 174.699142,52.910763 
	C174.532150,55.082432 174.371063,57.177277 174.210464,59.265762 
	C170.486420,60.051632 170.342941,60.053902 170.297195,57.162270 
	C170.199997,51.018177 170.267517,44.871479 170.267517,38.717373 
	C173.185715,38.458740 175.926300,38.215847 179.052429,37.973907 
M181.574295,46.424252 
	C181.220306,43.581406 181.002014,40.138988 176.931046,41.386452 
	C175.662659,41.775124 174.507019,44.822781 174.582016,46.599072 
	C174.645081,48.092793 176.569855,49.507915 177.670471,50.957836 
	C178.906754,49.728359 180.143021,48.498882 181.574295,46.424252 
z"/>
<path fill="#3F3C3F" opacity="1.000000" stroke="none" 
	d="
M47.907108,54.016361 
	C43.764534,53.908710 40.610397,52.197296 40.437439,48.481697 
	C40.299679,45.522270 41.263752,41.807323 43.156784,39.704201 
	C44.427155,38.292847 48.675369,38.150345 50.678944,39.193054 
	C52.839153,40.317280 53.935818,43.485134 56.359722,47.020580 
	C52.748375,47.020580 50.984024,47.020584 49.219673,47.020584 
	C47.617245,47.020584 46.014816,47.020580 44.248703,47.020580 
	C45.138783,54.211010 51.286156,48.258480 54.039639,52.068253 
	C52.008442,52.758049 50.158279,53.386368 47.907108,54.016361 
z"/>
<path fill="#3F3C3F" opacity="1.000000" stroke="none" 
	d="
M199.029053,46.834137 
	C199.612473,40.770733 201.953171,38.020077 206.208618,37.986771 
	C210.592209,37.952461 212.755844,40.377747 213.621063,46.769936 
	C210.206131,46.769936 206.838562,46.769936 203.232544,46.769936 
	C204.035568,54.208282 210.293289,48.213024 212.487167,51.360870 
	C207.185074,56.315998 201.176987,54.492458 199.029053,46.834137 
z"/>
<path fill="#424144" opacity="1.000000" stroke="none" 
	d="
M57.023476,50.313683 
	C58.713009,50.197178 60.187939,50.395264 61.668461,50.455292 
	C63.371784,50.524361 65.080055,50.471333 66.786179,50.471333 
	C66.850479,49.881802 66.914780,49.292274 66.979080,48.702744 
	C64.847809,48.110546 62.514530,47.874119 60.648609,46.814613 
	C59.130768,45.952755 57.046677,43.923080 57.237785,42.737583 
	C57.506538,41.070488 59.397552,38.884617 61.041222,38.382801 
	C64.405426,37.355690 67.983833,37.546864 70.879890,42.426888 
	C67.054230,41.929363 64.134926,41.549713 61.215622,41.170063 
	C61.073975,41.668156 60.932331,42.166245 60.790684,42.664337 
	C62.955341,43.467739 65.293602,43.986328 67.228905,45.166000 
	C68.736626,46.085041 70.907257,48.044178 70.700340,49.152042 
	C70.386559,50.832081 68.517151,52.978542 66.861000,53.496998 
	C63.145245,54.660213 59.272812,54.555180 57.023476,50.313683 
z"/>
<path fill="#424144" opacity="1.000000" stroke="none" 
	d="
M226.033432,53.451027 
	C221.763092,54.455429 218.112167,54.351624 214.586578,49.684357 
	C218.765350,50.099869 221.965851,50.418102 225.166336,50.736340 
	C225.301178,50.144962 225.436020,49.553585 225.570877,48.962208 
	C223.732437,48.334435 221.676743,48.032681 220.114014,46.991219 
	C218.401459,45.849903 217.143829,44.025921 215.687958,42.499435 
	C217.394562,41.005760 218.991364,38.460785 220.833878,38.268349 
	C223.501968,37.989681 226.347809,39.412945 229.117813,40.110210 
	C228.969147,40.820583 228.820480,41.530956 228.671814,42.241329 
	C225.721466,41.911381 222.771118,41.581432 219.820770,41.251488 
	C219.707947,41.728302 219.595123,42.205120 219.482315,42.681934 
	C221.514328,43.450489 223.687714,43.977959 225.535110,45.061329 
	C227.107773,45.983582 229.226593,47.433807 229.399918,48.857830 
	C229.561707,50.187065 227.480423,51.789295 226.033432,53.451027 
z"/>
<path fill="#484142" opacity="1.000000" stroke="none" 
	d="
M116.792259,37.988937 
	C123.358864,40.179550 125.704628,44.231735 123.644135,49.153999 
	C121.849937,53.440128 116.835457,55.163563 112.355309,53.087627 
	C108.807838,51.443867 107.641670,48.454624 108.127281,44.912575 
	C108.762665,40.278267 111.811028,38.111881 116.792259,37.988937 
M112.362297,44.054848 
	C113.087387,46.250111 113.607384,48.558594 114.705505,50.547939 
	C114.933243,50.960510 118.426369,50.384136 118.505707,49.930038 
	C118.945824,47.410950 119.753716,44.205975 118.618782,42.342289 
	C117.021797,39.719894 114.315247,40.668915 112.362297,44.054848 
z"/>
<path fill="#443E41" opacity="1.000000" stroke="none" 
	d="
M78.146828,43.144344 
	C80.491043,44.038727 82.677887,44.468739 84.487129,45.537788 
	C85.718781,46.265549 87.257561,47.965954 87.152267,49.090321 
	C87.017258,50.531857 85.658539,52.458271 84.319725,53.075771 
	C80.219025,54.967129 76.315887,54.431313 72.232338,49.644722 
	C76.613792,50.097610 79.824051,50.429440 83.034309,50.761269 
	C83.160233,50.091206 83.286156,49.421146 83.412079,48.751083 
	C81.519333,48.182697 79.383553,47.984810 77.799561,46.945751 
	C76.082832,45.819626 74.880318,43.909618 73.453552,42.341465 
	C75.237946,40.896881 76.899727,38.492275 78.837013,38.244858 
	C81.397598,37.917839 84.174011,39.280628 86.857651,39.917084 
	C86.736031,40.688965 86.614403,41.460846 86.492783,42.232727 
	C85.066460,42.038925 83.558594,42.074665 82.230988,41.603004 
	C79.560448,40.654221 79.100449,40.688599 78.146828,43.144344 
z"/>
<path fill="#443E41" opacity="1.000000" stroke="none" 
	d="
M245.475113,51.315739 
	C239.943878,55.263626 236.416595,55.034466 231.014542,49.708939 
	C235.358261,50.131958 238.550705,50.442856 241.743149,50.753757 
	C241.879578,50.098351 242.016006,49.442947 242.152435,48.787540 
	C240.277985,48.213535 238.178574,47.990337 236.589508,46.971321 
	C234.842529,45.851021 233.565201,43.998329 232.083252,42.464725 
	C233.848068,40.982113 235.474915,38.532345 237.411835,38.256027 
	C239.966476,37.891582 242.764465,39.232857 245.457855,39.840836 
	C245.329803,40.637676 245.201736,41.434517 245.073685,42.231361 
	C242.172501,41.847633 239.271301,41.463909 236.370117,41.080181 
	C236.212463,41.585896 236.054794,42.091610 235.897141,42.597324 
	C238.016235,43.407608 240.123581,44.250458 242.257324,45.020164 
	C245.109482,46.049038 246.919601,47.636379 245.475113,51.315739 
z"/>
<path fill="#4A444C" opacity="1.000000" stroke="none" 
	d="
M17.969461,298.940430 
	C19.870541,303.706390 21.648252,308.111511 23.527517,312.768280 
	C21.946573,312.448303 6.422653,312.667725 4.836135,313.570007 
	C7.548893,306.451630 9.846571,300.249817 12.403199,294.156708 
	C12.551421,293.803436 15.221288,293.874786 15.970453,294.562500 
	C16.976807,295.486298 17.255205,297.203156 17.969461,298.940430 
M11.136893,303.865082 
	C13.046873,304.306213 14.956852,304.747345 17.708920,305.382996 
	C16.346266,301.711792 15.419133,299.213928 14.149443,295.793213 
	C12.967977,298.871643 12.157011,300.984711 11.136893,303.865082 
z"/>
<path fill="#3C3C48" opacity="1.000000" stroke="none" 
	d="
M101.960495,305.207520 
	C100.231445,305.208557 98.940575,305.208557 97.373566,305.208557 
	C97.149101,308.099396 96.958168,310.558472 96.767235,313.017517 
	C96.288582,313.004150 95.809937,312.990784 95.331284,312.977386 
	C95.331284,306.473724 95.331284,299.970062 95.331284,292.976105 
	C97.262291,292.976105 99.543320,292.946869 101.823357,292.981964 
	C107.234940,293.065247 109.938568,295.031647 109.761078,299.081177 
	C109.560791,303.650757 106.736290,305.425842 101.960495,305.207520 
M97.057076,299.510284 
	C96.414253,304.637695 100.412613,303.207336 102.562355,302.788696 
	C104.236557,302.462646 105.553337,300.301178 107.028961,298.955414 
	C105.599518,297.700745 104.295784,295.633423 102.710190,295.388123 
	C100.512268,295.048126 96.551170,293.511078 97.057076,299.510284 
z"/>
<path fill="#4F4F52" opacity="1.000000" stroke="none" 
	d="
M112.944344,301.245239 
	C115.271309,297.607666 118.773567,296.907715 121.723701,298.632690 
	C123.433655,299.632507 124.179832,302.854492 124.662384,305.218750 
	C125.147888,307.597473 124.769203,310.152588 124.769203,312.380676 
	C122.550385,312.584076 120.320251,313.301880 118.377518,312.831818 
	C116.137863,312.289948 114.151924,310.699432 112.055801,309.564301 
	C113.669701,308.026276 115.096581,306.179871 116.958481,305.050781 
	C118.370987,304.194153 120.337463,304.251007 122.139511,303.884705 
	C120.488655,299.585297 118.513611,298.955353 115.574127,301.328583 
	C114.895691,301.876343 114.131371,302.317749 113.406563,302.808075 
	C113.222008,302.395844 113.037453,301.983612 112.944344,301.245239 
M118.255501,306.943542 
	C117.144279,307.804688 116.033066,308.665802 114.921844,309.526947 
	C116.213432,309.984497 117.719452,311.081573 118.742584,310.738525 
	C120.036209,310.304749 120.936615,308.698334 122.006630,307.597687 
	C121.020096,307.333832 120.033562,307.069977 118.255501,306.943542 
z"/>
<path fill="#282828" opacity="1.000000" stroke="none" 
	d="
M36.394798,245.239670 
	C43.156906,244.616974 49.684662,244.286469 56.215378,244.210342 
	C56.910049,244.202240 58.193348,245.701599 58.168335,246.467865 
	C58.142361,247.263489 56.879696,248.663147 56.121052,248.688293 
	C50.176117,248.885345 44.217705,248.928635 38.277134,248.685287 
	C37.531048,248.654724 36.864628,246.679520 36.394798,245.239670 
z"/>
<path fill="#181818" opacity="1.000000" stroke="none" 
	d="
M52.159615,187.116821 
	C52.681641,189.282410 52.789413,191.410278 52.913853,193.867218 
	C48.466892,193.867218 44.588570,193.867218 40.434647,193.867218 
	C40.075397,191.821289 39.692379,189.639999 39.242702,187.079102 
	C43.537399,187.079102 47.641384,187.079102 52.159615,187.116821 
z"/>
<path fill="#364652" opacity="1.000000" stroke="none" 
	d="
M105.581467,53.837997 
	C100.979752,54.500668 99.682800,52.404106 99.546082,48.471046 
	C99.451843,45.759998 97.641739,42.972542 98.003792,40.418438 
	C98.396927,37.645031 99.178719,34.055489 102.509369,33.753441 
	C104.034386,35.967964 105.247345,37.729340 106.475700,39.513081 
	C102.559059,43.742195 102.597885,46.790169 106.655380,51.616222 
	C106.908920,51.917786 106.228432,53.004623 105.581467,53.837997 
z"/>
<path fill="#534A3F" opacity="1.000000" stroke="none" 
	d="
M193.565598,41.953026 
	C192.860367,46.034878 192.440414,49.792004 192.007523,53.664963 
	C189.496689,54.613266 188.092392,54.127560 188.208969,50.923546 
	C188.358826,46.805195 188.245407,42.677261 188.245407,38.464676 
	C191.559692,38.464676 194.577805,38.464676 197.595932,38.464676 
	C197.762283,38.772778 197.928650,39.080883 198.095001,39.388985 
	C196.680298,40.135422 195.265579,40.881859 193.565598,41.953026 
z"/>
<path fill="#334252" opacity="1.000000" stroke="none" 
	d="
M135.726166,52.730183 
	C135.673843,45.762032 135.673843,39.268551 135.673843,32.604172 
	C138.512253,31.373329 139.967789,31.789305 139.895782,35.268139 
	C139.772018,41.248444 139.861557,47.233166 139.861557,54.046276 
	C138.269608,53.718212 137.024048,53.461533 135.726166,52.730183 
z"/>
<path fill="#4A444C" opacity="1.000000" stroke="none" 
	d="
M154.849045,300.007355 
	C155.409073,301.821533 155.969116,303.635712 156.689529,305.969360 
	C152.706116,305.969360 149.438965,305.969360 145.554123,305.969360 
	C147.352249,313.356628 151.841660,310.404541 156.315628,308.784271 
	C154.025833,313.147644 150.951035,313.731659 147.641190,312.602936 
	C143.173096,311.079285 142.624542,307.336761 143.545502,302.713623 
	C144.919006,302.735992 145.964798,303.274628 147.010590,303.813232 
	C149.149780,303.334290 151.288986,302.855347 153.236328,301.793427 
	C153.645981,300.809418 154.247513,300.408386 154.849045,300.007355 
z"/>
<path fill="#334252" opacity="1.000000" stroke="none" 
	d="
M33.740566,47.114727 
	C32.912083,49.813061 35.959839,54.306019 29.922583,53.944546 
	C29.922583,48.629478 29.922583,43.585861 29.922583,38.421524 
	C32.985611,38.421524 35.951809,38.421524 40.368629,38.421524 
	C36.970436,41.284462 32.497555,42.088783 33.740566,47.114727 
z"/>
<path fill="#40373D" opacity="1.000000" stroke="none" 
	d="
M45.062859,299.028015 
	C45.473225,298.749756 45.876629,298.242126 46.295055,298.229431 
	C49.745716,298.124664 53.158306,299.873474 56.724361,298.168671 
	C57.310421,297.888489 59.751789,299.568939 59.826797,300.468994 
	C60.170628,304.594757 59.978031,308.765228 59.978031,312.919647 
	C59.313801,312.929565 58.649570,312.939514 57.985340,312.949463 
	C57.985340,310.009491 58.238613,307.037964 57.878105,304.142883 
	C57.698830,302.703186 56.393703,301.403717 55.597878,300.040802 
	C54.465466,301.418701 52.640442,302.666290 52.351276,304.202881 
	C51.822147,307.014618 52.200653,309.997162 52.200653,312.908478 
	C51.541168,312.937286 50.881687,312.966095 50.222202,312.994904 
	C50.125675,310.319702 50.048634,307.643616 49.926620,304.969574 
	C49.823944,302.719391 50.394871,300.003204 46.147842,299.893250 
	C45.280273,299.589661 45.116962,299.345367 45.062859,299.028015 
z"/>
<path fill="#364652" opacity="1.000000" stroke="none" 
	d="
M132.156418,299.092773 
	C137.346466,297.007416 139.896713,298.428253 140.079178,303.619476 
	C140.188477,306.729187 140.099258,309.845886 140.099258,312.959442 
	C139.324783,312.961823 138.550323,312.964233 137.775848,312.966614 
	C137.775848,310.236603 138.014893,307.477295 137.685638,304.787598 
	C137.490097,303.190247 136.399384,301.702484 135.711151,300.165436 
	C134.151276,301.022278 132.591400,301.879089 130.643402,303.351562 
	C130.222931,306.899536 130.190567,309.831879 130.158203,312.764191 
	C129.999451,312.829742 129.840698,312.895325 129.409576,312.443115 
	C129.151642,307.337555 129.166046,302.749756 129.180450,298.161987 
	C129.365662,298.145264 129.550873,298.128540 129.921082,298.555725 
	C130.789536,299.030670 131.472977,299.061737 132.156418,299.092773 
z"/>
<path fill="#534A3F" opacity="1.000000" stroke="none" 
	d="
M35.985489,312.779907 
	C35.080952,312.688324 34.065483,312.284210 33.291027,312.559082 
	C29.889385,313.766479 26.782932,312.674500 26.016598,309.612579 
	C25.265341,306.610962 25.562365,302.765961 26.878101,299.992645 
	C28.175180,297.258667 31.513233,297.355682 34.631367,299.550171 
	C34.948704,300.675079 34.873199,301.406616 34.517624,301.930725 
	C32.395042,301.495636 30.552530,301.268036 28.710018,301.040466 
	C28.476482,303.679138 27.779854,306.413208 28.291607,308.898407 
	C28.445126,309.643951 31.968164,309.695679 34.133614,310.297546 
	C34.874958,311.279816 35.430222,312.029877 35.985489,312.779907 
z"/>
<path fill="#563933" opacity="1.000000" stroke="none" 
	d="
M73.666756,299.785400 
	C75.743523,299.392700 78.185181,298.164337 79.785400,298.863007 
	C81.146027,299.457123 81.989319,302.210571 82.251274,304.119812 
	C82.652214,307.042145 82.356506,310.059998 82.356506,313.037323 
	C81.570992,313.022003 80.785469,313.006683 79.999954,312.991333 
	C79.999954,310.081482 79.945030,307.170258 80.015800,304.262146 
	C80.083138,301.494873 79.237061,299.710114 75.260254,299.989075 
	C74.197182,299.876160 73.931969,299.830780 73.666756,299.785400 
z"/>
<path fill="#563933" opacity="1.000000" stroke="none" 
	d="
M34.797691,302.138184 
	C34.873199,301.406616 34.948704,300.675079 35.024719,299.577148 
	C35.025227,297.169739 35.025227,295.128662 35.025227,293.087555 
	C35.638588,293.089600 36.251945,293.091675 36.865307,293.093719 
	C36.865307,299.616943 36.865307,306.140198 36.425396,312.721680 
	C35.430222,312.029877 34.874958,311.279816 34.308826,309.932709 
	C34.464539,306.936493 34.631115,304.537323 34.797691,302.138184 
z"/>
<path fill="#333351" opacity="1.000000" stroke="none" 
	d="
M159.817505,302.999817 
	C159.817505,299.375214 159.817505,296.235596 159.817505,293.095978 
	C160.358353,293.100433 160.899185,293.104889 161.440033,293.109344 
	C161.440033,299.681946 161.440033,306.254578 161.440033,312.827179 
	C160.899200,312.881439 160.358353,312.935730 159.817520,312.990021 
	C159.817520,309.821625 159.817520,306.653229 159.817505,302.999817 
z"/>
<path fill="#333351" opacity="1.000000" stroke="none" 
	d="
M73.403809,299.538635 
	C73.931969,299.830780 74.197182,299.876160 74.864166,299.970337 
	C74.190002,304.274261 73.114075,308.529327 72.038147,312.784393 
	C71.790710,312.807861 71.543274,312.831299 71.295837,312.854767 
	C71.295837,307.993164 71.295837,303.131561 71.295837,298.269958 
	C71.910843,298.610626 72.525856,298.951294 73.403809,299.538635 
z"/>
<path fill="#333351" opacity="1.000000" stroke="none" 
	d="
M67.078651,305.974701 
	C67.078651,308.603302 67.078651,310.757477 67.078651,312.911621 
	C66.536118,312.892303 65.993584,312.872955 65.451050,312.853607 
	C65.451050,307.945984 65.451050,303.038391 65.451050,298.130768 
	C65.897491,298.092316 66.343933,298.053833 66.790375,298.015381 
	C66.886467,300.510345 66.982559,303.005280 67.078651,305.974701 
z"/>
<path fill="#40373D" opacity="1.000000" stroke="none" 
	d="
M42.084393,298.170044 
	C42.264500,298.146179 42.444603,298.122345 42.786922,298.569397 
	C43.320393,299.890228 43.691639,300.740234 44.062889,301.590210 
	C44.062889,301.590210 44.035549,301.973907 43.658966,302.383484 
	C43.220695,306.085663 43.159000,309.378296 43.097309,312.670929 
	C42.938499,312.760376 42.779686,312.849854 42.338848,312.430298 
	C42.066013,307.337494 42.075203,302.753784 42.084393,298.170044 
z"/>
<path fill="#F4F4F4" opacity="1.000000" stroke="none" 
	d="
M147.004974,303.505493 
	C145.964798,303.274628 144.919006,302.735992 143.537018,302.314697 
	C145.297867,298.552917 145.297867,298.552917 147.947998,299.381622 
	C147.597137,300.793091 147.298248,301.995422 147.004974,303.505493 
z"/>
<path fill="#696051" opacity="1.000000" stroke="none" 
	d="
M41.678951,298.311584 
	C42.075203,302.753784 42.066013,307.337494 42.070915,312.375793 
	C41.814514,308.037903 41.544014,303.245514 41.678951,298.311584 
z"/>
<path fill="#696051" opacity="1.000000" stroke="none" 
	d="
M128.781876,298.322968 
	C129.166046,302.749756 129.151642,307.337555 129.159302,312.381866 
	C128.915359,308.053589 128.649323,303.268768 128.781876,298.322968 
z"/>
<path fill="#696051" opacity="1.000000" stroke="none" 
	d="
M43.395142,312.440521 
	C43.159000,309.378296 43.220695,306.085663 43.557449,302.546814 
	C43.785999,305.603790 43.739483,308.906952 43.395142,312.440521 
z"/>
<path fill="#F4F4F4" opacity="1.000000" stroke="none" 
	d="
M154.741272,299.691681 
	C154.247513,300.408386 153.645981,300.809418 152.991470,301.519226 
	C152.445526,300.736176 151.952576,299.644440 151.459625,298.552673 
	C152.517578,298.827118 153.575546,299.101562 154.741272,299.691681 
z"/>
<path fill="#696051" opacity="1.000000" stroke="none" 
	d="
M130.483887,312.558105 
	C130.190567,309.831879 130.222931,306.899536 130.500458,303.732941 
	C130.766953,306.449799 130.788254,309.400909 130.483887,312.558105 
z"/>
<path fill="#696051" opacity="1.000000" stroke="none" 
	d="
M44.270523,301.468506 
	C43.691639,300.740234 43.320393,299.890228 42.984383,298.757202 
	C43.516621,298.646881 44.013615,298.819611 44.786736,299.010193 
	C45.116962,299.345367 45.280273,299.589661 45.734932,299.893250 
	C45.437428,300.466003 44.957794,300.906403 44.270523,301.468506 
z"/>
<path fill="#696051" opacity="1.000000" stroke="none" 
	d="
M131.881409,299.094299 
	C131.472977,299.061737 130.789536,299.030670 130.135284,298.734375 
	C130.645111,298.678040 131.125748,298.886932 131.881409,299.094299 
z"/>
<path fill="#F4F4F4" opacity="1.000000" stroke="none" 
	d="
M109.166512,101.716019 
	C107.175392,96.740669 105.369400,92.083046 103.261459,86.646667 
	C123.260559,86.646667 141.660812,86.646667 160.042679,86.646667 
	C161.477112,96.172211 154.285294,107.341492 143.990021,111.736717 
	C131.471207,117.081192 117.810860,113.254631 109.166512,101.716019 
z"/>
<path fill="#F8DD54" opacity="1.000000" stroke="none" 
	d="
M150.257690,175.398285 
	C151.067047,187.795746 144.289520,197.047058 134.196365,197.857666 
	C124.804558,198.611938 116.528435,191.830322 114.896591,182.043045 
	C113.269943,172.286865 119.251762,162.348755 128.098602,160.109467 
	C137.319443,157.775513 146.000397,162.622955 149.447052,172.061783 
	C149.787384,172.993790 149.943878,173.992935 150.257690,175.398285 
z"/>
<path fill="#F4D953" opacity="1.000000" stroke="none" 
	d="
M40.050880,228.957947 
	C38.949932,225.413437 37.181232,222.052917 37.487099,218.893219 
	C38.045147,213.128342 44.319176,209.615768 49.791946,211.139511 
	C55.420910,212.706726 58.645660,219.452469 56.519478,225.212616 
	C54.418339,230.904907 48.648960,233.496994 43.217777,231.113739 
	C42.176682,230.656891 41.281235,229.868118 40.050880,228.957947 
z"/>
<path fill="#F6F8F5" opacity="1.000000" stroke="none" 
	d="
M12.095246,48.615364 
	C12.056156,44.352142 12.056156,40.551083 12.056156,35.144993 
	C15.473851,36.362263 19.739227,36.617756 20.693388,38.527565 
	C22.012215,41.167274 21.728415,45.508007 20.349865,48.212311 
	C19.668329,49.549282 14.999229,48.853542 12.095246,48.615364 
z"/>
<path fill="#ECF1F0" opacity="1.000000" stroke="none" 
	d="
M181.476791,46.846828 
	C180.143021,48.498882 178.906754,49.728359 177.670471,50.957832 
	C176.569855,49.507915 174.645081,48.092793 174.582016,46.599072 
	C174.507019,44.822781 175.662659,41.775124 176.931046,41.386452 
	C181.002014,40.138988 181.220306,43.581406 181.476791,46.846828 
z"/>
<path fill="#F6F8F5" opacity="1.000000" stroke="none" 
	d="
M112.523285,43.698341 
	C114.315247,40.668915 117.021797,39.719894 118.618782,42.342289 
	C119.753716,44.205975 118.945824,47.410950 118.505707,49.930038 
	C118.426369,50.384136 114.933243,50.960510 114.705505,50.547939 
	C113.607384,48.558594 113.087387,46.250111 112.523285,43.698341 
z"/>
<path fill="#ECF1F0" opacity="1.000000" stroke="none" 
	d="
M11.241468,303.481445 
	C12.157011,300.984711 12.967977,298.871643 14.149443,295.793213 
	C15.419133,299.213928 16.346266,301.711792 17.708920,305.382996 
	C14.956852,304.747345 13.046873,304.306213 11.241468,303.481445 
z"/>
<path fill="#F4F4F4" opacity="1.000000" stroke="none" 
	d="
M97.057129,299.068726 
	C96.551170,293.511078 100.512268,295.048126 102.710190,295.388123 
	C104.295784,295.633423 105.599518,297.700745 107.028961,298.955414 
	C105.553337,300.301178 104.236557,302.462646 102.562355,302.788696 
	C100.412613,303.207336 96.414253,304.637695 97.057129,299.068726 
z"/>
<path fill="#ECF1F0" opacity="1.000000" stroke="none" 
	d="
M118.651260,306.874847 
	C120.033562,307.069977 121.020096,307.333832 122.006630,307.597687 
	C120.936615,308.698334 120.036209,310.304749 118.742584,310.738525 
	C117.719452,311.081573 116.213432,309.984497 114.921844,309.526947 
	C116.033066,308.665802 117.144279,307.804688 118.651260,306.874847 
z"/>
<path fill="#F4F4F4" opacity="1.000000" stroke="none" 
	d="
M34.517624,301.930725 
	C34.631115,304.537323 34.464539,306.936493 34.122749,309.700439 
	C31.968164,309.695679 28.445126,309.643951 28.291607,308.898407 
	C27.779854,306.413208 28.476482,303.679138 28.710018,301.040466 
	C30.552530,301.268036 32.395042,301.495636 34.517624,301.930725 
z"/>
</svg>