<svg version="1.1" id="Layer_1" xmlns="http://www.w3.org/2000/svg" xmlns:xlink="http://www.w3.org/1999/xlink" x="0px" y="0px"
	 width="100%" viewBox="0 0 208 160" enable-background="new 0 0 208 160" xml:space="preserve">
<path fill="#000000" opacity="1.000000" stroke="none" 
	d="
M1.000000,79.468658 
	C4.008150,79.712318 6.642605,83.213287 9.876809,81.376816 
	C17.071224,77.291656 22.791866,71.706230 22.685732,62.684128 
	C22.635609,58.423225 23.267008,54.586746 25.289349,50.613739 
	C28.685863,52.091003 29.225121,55.130512 29.996424,57.862198 
	C31.778347,64.173149 33.619598,65.337830 40.931320,63.654015 
	C30.956589,64.110390 33.390308,56.380791 31.909941,50.921009 
	C36.438408,60.107960 44.868004,58.670483 52.447353,58.551876 
	C56.859776,58.482830 60.189358,60.513115 63.506943,62.444866 
	C66.798622,64.361534 65.474129,71.255875 61.381588,73.850655 
	C63.812412,74.990227 65.624733,74.748688 67.158058,72.755333 
	C68.699593,70.751305 70.707817,71.088707 71.768295,72.756958 
	C76.061790,79.511086 82.228439,79.311012 88.874458,77.912254 
	C90.148155,77.644180 91.464790,77.580193 93.472328,77.335381 
	C93.801140,84.774551 91.888885,92.660080 98.590469,98.704155 
	C98.962013,99.021324 99.178146,99.290848 99.178146,99.290848 
	C100.413490,103.403328 104.088364,104.994759 107.320221,106.922791 
	C110.274574,108.685280 112.325607,110.600174 111.595566,114.457672 
	C110.870758,118.287453 107.642082,118.023026 105.063789,118.737892 
	C103.159264,119.265953 101.082855,119.191467 99.195862,119.759987 
	C97.662720,120.221893 95.853867,120.921631 95.738304,122.917793 
	C95.635208,124.698799 97.300301,125.289604 98.518608,126.119934 
	C101.797539,128.354675 105.738571,128.831680 109.399857,130.227478 
	C102.852859,130.707153 96.226448,134.396347 90.018211,128.976807 
	C88.272255,127.452644 86.572983,128.793610 85.407204,130.418365 
	C83.080086,133.661697 80.684662,136.810120 80.893753,141.212952 
	C81.009384,143.647812 80.565659,146.146545 78.842461,148.396011 
	C78.234642,138.918701 77.358749,129.450577 76.149246,120.095001 
	C74.987099,111.105652 75.590157,101.406250 70.596565,93.172615 
	C71.536423,102.522995 73.580551,111.713554 72.273590,120.882530 
	C70.383255,122.026360 70.134064,119.703056 68.449287,120.212624 
	C66.711128,127.307899 70.453796,134.654190 68.741631,142.030319 
	C62.029499,141.713760 58.668797,135.753998 53.195377,133.612823 
	C51.272552,132.860626 52.615391,130.312119 52.411022,128.586227 
	C52.052021,125.554497 54.386593,120.949593 50.222473,119.871872 
	C45.447102,118.635948 40.317089,114.204567 35.151218,119.379326 
	C33.362965,121.170662 29.795845,121.115707 30.465590,125.371056 
	C30.893635,128.090729 30.071959,130.868668 32.483189,133.158752 
	C34.434025,135.011581 34.179115,137.533997 32.004128,138.698395 
	C28.257116,140.704391 27.509539,143.147156 29.722404,146.425400 
	C28.399208,147.895081 27.365154,146.890488 26.281382,146.748352 
	C22.678761,146.275879 19.245363,145.829712 16.113102,148.859604 
	C12.785567,152.078369 10.947916,151.179276 9.618044,146.619217 
	C8.588690,143.089615 9.513272,139.688690 9.783753,136.226303 
	C9.924573,134.423691 9.808561,132.601013 9.808561,130.508026 
	C0.910721,130.653198 5.857650,123.783005 3.968879,119.341156 
	C2.631087,122.453972 3.021981,125.300049 1.219506,127.707184 
	C1.000000,111.979103 1.000000,95.958214 1.000000,79.468658 
M53.083977,79.624100 
	C53.161003,80.626526 52.860096,81.450935 52.355663,82.370415 
	C50.258686,86.192795 52.236416,89.900429 56.785915,90.787285 
	C56.764786,86.437080 56.427155,82.231300 52.821419,78.339943 
	C50.217430,74.157387 45.980263,72.730843 41.674919,71.144653 
	C40.655647,73.070076 39.593540,74.913292 41.657883,75.757126 
	C45.293018,77.243050 48.497799,80.589668 53.083977,79.624100 
M31.384914,73.038872 
	C29.652880,73.981483 27.749865,74.706100 26.219790,75.906197 
	C20.911377,80.069801 20.504526,83.463539 24.690985,88.642365 
	C24.877617,83.362015 29.610250,80.334747 30.189022,75.231491 
	C33.050114,75.511543 36.525909,76.706078 36.064255,71.837685 
	C34.320332,71.359764 33.296379,72.495888 31.384914,73.038872 
M68.043999,107.042244 
	C69.774025,99.437820 68.895226,97.591011 62.945061,98.213120 
	C67.132141,100.256905 66.792320,103.906143 68.043999,107.042244 
M51.938190,65.390953 
	C54.246479,65.843842 56.561321,66.367462 59.559666,64.819374 
	C55.808258,63.638077 52.927685,63.119862 49.732323,64.570854 
	C50.450848,64.851509 50.903923,65.028481 51.938190,65.390953 
M3.722121,107.179893 
	C3.904734,108.192451 3.430002,109.593689 5.324481,109.739944 
	C6.776069,107.284630 6.361832,104.915901 5.406846,102.247559 
	C3.790351,103.587524 4.268941,105.229927 3.722121,107.179893 
z"/>
<path fill="#000000" opacity="1.000000" stroke="none" 
	d="
M99.533882,1.000000 
	C100.030258,1.664420 99.794289,2.542830 100.130608,2.961237 
	C105.390915,9.505601 104.467926,16.406784 100.856819,23.964453 
	C95.774361,19.718243 93.063347,13.878962 90.735313,7.673530 
	C90.097710,13.706805 92.040840,18.720263 95.620827,23.091938 
	C99.087189,27.324862 103.583519,30.464787 108.729668,33.976398 
	C105.136848,35.534107 102.997078,33.835289 101.235695,32.566277 
	C94.958755,28.043974 89.828354,22.545399 87.040283,15.056325 
	C84.919258,9.359015 83.840645,9.553393 78.250946,11.290984 
	C69.212837,14.100532 60.496246,17.717525 51.587555,20.830359 
	C48.454994,21.924923 46.384220,24.097345 43.973309,25.644514 
	C44.753017,28.331821 47.209343,26.830011 48.276859,28.117418 
	C42.517521,35.720345 42.582340,51.438801 48.558109,55.893822 
	C43.978409,57.036694 40.293411,56.906715 38.559433,51.808693 
	C37.116573,47.566586 35.499111,43.378689 34.208401,39.091690 
	C33.223534,35.820534 32.727947,32.618961 37.098694,30.937016 
	C38.436089,30.422363 39.836975,29.097723 40.314251,27.023293 
	C37.354858,25.934261 35.155430,28.973864 32.441608,28.561977 
	C31.961905,26.716520 33.437443,26.588875 34.334995,26.087881 
	C42.186790,21.705162 50.846321,19.091730 58.894772,15.380401 
	C67.693840,11.322943 77.202812,8.080892 84.941467,1.349710 
	C89.689255,1.000000 94.378510,1.000000 99.533882,1.000000 
z"/>
<path fill="#000000" opacity="1.000000" stroke="none" 
	d="
M209.000000,23.531263 
	C195.196960,20.683256 182.643478,14.039826 169.465240,9.061357 
	C164.182983,7.065830 158.537201,5.633678 154.073181,1.351794 
	C172.229843,1.000000 190.459702,1.000000 209.000000,1.000000 
	C209.000000,8.351263 209.000000,15.706895 209.000000,23.531263 
z"/>
<path fill="#000000" opacity="1.000000" stroke="none" 
	d="
M82.531342,1.000000 
	C80.096336,4.669223 75.491104,5.051254 71.588997,6.617604 
	C63.366093,9.918367 54.919922,12.662915 46.004601,15.835241 
	C46.348282,10.070484 49.589798,6.229535 50.971882,1.369263 
	C61.354229,1.000000 71.708458,1.000000 82.531342,1.000000 
z"/>
<path fill="#000000" opacity="1.000000" stroke="none" 
	d="
M93.878899,32.647732 
	C94.692390,33.365913 95.273376,33.882332 96.449440,34.927689 
	C91.436569,35.433422 87.874947,34.637108 86.055832,30.294088 
	C84.979599,27.724651 82.880676,26.629555 80.528732,25.670879 
	C77.826866,24.569574 75.145432,23.773891 72.681091,21.742559 
	C70.303703,19.782898 66.822197,22.146540 63.812508,22.460232 
	C62.407642,22.606655 61.303295,24.131498 59.318089,23.462898 
	C59.838173,21.477886 61.516457,20.548254 63.042957,20.127224 
	C68.816399,18.534842 73.816193,15.190814 79.406067,13.196810 
	C81.797882,12.343611 83.006691,12.726030 83.870178,15.244314 
	C86.039757,21.571627 89.650017,27.130129 93.878899,32.647732 
z"/>
<path fill="#000000" opacity="1.000000" stroke="none" 
	d="
M196.815170,26.847012 
	C187.625870,24.392076 179.567352,20.086309 171.195892,16.528698 
	C164.188934,13.550948 156.991791,11.008776 149.821396,8.433701 
	C147.131104,7.467546 145.065140,6.540394 147.590927,2.408435 
	C164.691452,10.611773 183.137787,15.839624 199.777740,25.142914 
	C199.219345,27.020090 198.145020,26.867762 196.815170,26.847012 
z"/>
<path fill="#000000" opacity="1.000000" stroke="none" 
	d="
M194.535461,36.446953 
	C189.643906,34.642941 184.488556,33.994320 180.112534,31.131481 
	C176.169876,28.552153 173.351944,25.127079 170.152328,20.363667 
	C176.782639,20.759146 181.292892,24.073843 186.333969,25.616747 
	C187.743774,26.048243 189.010834,26.949907 190.422348,27.371439 
	C196.422867,29.163416 196.850754,29.975468 194.535461,36.446953 
z"/>
<path fill="#000000" opacity="1.000000" stroke="none" 
	d="
M124.983398,66.795723 
	C126.856842,68.283386 129.388321,68.624771 129.760117,71.658508 
	C123.565475,71.532227 117.897865,67.678360 111.667587,69.745514 
	C105.863243,71.671341 103.055855,77.279144 98.225609,81.509338 
	C98.507454,69.077179 113.281616,61.367687 124.983398,66.795723 
z"/>
<path fill="#000000" opacity="1.000000" stroke="none" 
	d="
M98.847214,98.892242 
	C99.082588,94.697731 94.547592,91.496658 96.538673,86.816406 
	C99.491005,87.609940 100.564529,89.975433 101.627274,92.103043 
	C103.377731,95.607414 105.422348,98.706024 109.053535,100.537453 
	C110.185295,101.108261 111.722527,101.845589 111.071426,103.497665 
	C110.308434,105.433632 108.616837,104.607887 107.179237,104.365295 
	C104.004646,103.829620 102.129021,101.291389 99.450043,99.431686 
	C99.178146,99.290848 98.962013,99.021324 98.847214,98.892242 
z"/>
<path fill="#000000" opacity="1.000000" stroke="none" 
	d="
M111.224747,60.494316 
	C111.421280,63.752747 110.144669,64.453438 103.880257,64.483963 
	C106.181023,62.404140 107.852615,60.281826 111.224747,60.494316 
z"/>
<path fill="#000000" opacity="1.000000" stroke="none" 
	d="
M25.996019,43.220474 
	C25.872492,45.209400 27.696951,47.088043 25.169037,48.739017 
	C22.986259,46.120293 23.251244,43.205498 23.431681,40.209995 
	C25.751415,40.060654 25.485773,41.761707 25.996019,43.220474 
z"/>
</svg>